<svg xmlns="http://www.w3.org/2000/svg" width="200" height="69" viewBox="0 0 200 69" fill="none"><path fill-rule="evenodd" clip-rule="evenodd" d="M68.1222 47.3164L66.3948 44.556C65.4344 45.462 64.2626 45.9815 63.1211 45.9815C62.5956 45.9815 62.3177 45.9211 61.1701 45.6251C60.0286 45.299 59.2192 45.2023 58.3253 45.2023C54.2785 45.2023 51.6511 47.4069 51.6511 50.8195C51.6511 53.2899 52.7625 54.8119 55.0516 55.428C54.1275 55.6575 53.1007 56.1407 52.6417 56.6964C52.3034 57.089 52.1464 57.6024 52.1464 58.2185C52.1464 58.7379 52.2672 59.1909 52.4544 59.5835C52.6719 59.9399 52.9799 60.2298 53.3484 60.3929C54.0852 60.6828 55.2932 60.8821 57.1475 60.9123C58.1079 60.9123 58.6937 60.9425 58.9112 60.9425C60.0527 61.009 60.6447 61.2023 61.0735 61.4318C61.5084 61.6915 61.8164 62.2774 61.8164 62.9237C61.8164 63.57 61.4118 64.2222 60.8259 64.6148C60.2702 65.0074 59.3763 65.1705 58.1985 65.1705C56.2838 65.1705 55.2328 64.4578 55.2328 63.123C55.2328 62.5371 55.2932 62.4102 55.4201 62.0539H51.5847C51.4337 62.38 51.2162 62.8331 51.2162 63.7451C51.2162 64.8806 51.6511 65.8531 52.5148 66.6987C53.9342 68.0939 56.2536 68.4865 58.5065 68.4865C60.9769 68.4865 63.3566 67.9007 64.7458 66.3423C65.6095 65.3699 66.0142 64.3008 66.0142 62.9055C66.0142 61.4137 65.5793 60.2782 64.6552 59.3661C63.5439 58.291 62.2755 57.9045 59.8655 57.8743L57.6428 57.844C57.2079 57.844 56.9663 57.6809 56.9663 57.4514C56.9663 56.9984 57.5522 56.6058 58.6031 56.0864C58.9112 56.1166 59.038 56.1166 59.2192 56.1166C62.5896 56.1166 65.0599 54.0388 65.0599 51.1819C65.0599 50.0766 64.7519 49.231 64.1298 48.4579C64.6552 48.5182 64.8062 48.5545 65.2109 48.5545C66.3525 48.5545 67.2162 48.1981 68.1161 47.3223L68.1222 47.3164ZM70.6711 31.2016C70.6711 29.3353 69.5174 27.6078 67.5544 26.1824C67.7296 26.7562 67.8323 27.336 67.8323 27.9219C67.8323 33.2673 60.3547 37.8396 49.7485 39.7361C50.9505 39.869 52.1947 39.9415 53.4692 39.9415C62.9701 39.9415 70.665 36.0215 70.665 31.1956L70.6711 31.2016ZM64.5586 28.2964C64.5586 33.4304 53.0584 37.5859 38.8765 37.5859C24.6946 37.5859 13.2005 33.4304 13.2005 28.2964C13.2005 26.6777 14.3421 25.1616 16.3474 23.8389C16.0393 24.4066 15.8702 24.9925 15.8702 25.5965C15.8702 30.3318 25.9812 34.1733 38.4598 34.1733C50.9384 34.1733 61.0494 30.3318 61.0494 25.5965C61.0494 24.7026 60.687 23.8328 60.0105 23.0235C62.8734 24.5214 64.5586 26.3394 64.5586 28.2964ZM16.0333 20.082C10.851 21.3444 7.3357 23.8207 7.3357 26.6656C7.3357 28.4293 8.6826 30.042 10.9416 31.3224C10.2651 30.2413 9.89665 29.1058 9.89665 27.928C9.89665 24.9684 12.1918 22.2443 16.0393 20.082H16.0333ZM66.6907 11.7408C66.2135 11.167 65.5612 11.167 65.0478 11.6381C64.5525 12.2964 64.5344 12.7676 64.8908 13.1239C65.2653 13.5105 66.0505 13.8487 66.6122 13.4018C67.1739 12.9548 67.1739 12.3085 66.6967 11.7408H66.6907ZM60.1675 13.8729C61.7741 11.6381 64.8485 15.5943 61.3634 16.1439C59.9682 16.3614 57.6126 17.8895 56.6039 20.2934C55.1785 23.851 55.7945 26.4844 53.3363 28.0669C48.0996 31.4432 31.9849 32.7116 25.0389 28.387C19.5969 24.9925 21.4632 19.6169 5.89818 7.76041C3.8627 6.21417 6.27266 4.56527 7.80077 5.62227C9.32285 6.67927 7.92761 6.95709 11.008 10.0254C17.2171 16.2285 17.1567 10.6536 18.1412 12.7615C20.2009 17.1949 24.755 21.6584 24.755 21.6584C29.3152 24.618 32.9513 25.2643 39.6738 20.7283C43.938 17.8532 42.1925 25.3066 52.6477 19.931C56.459 17.968 56.3019 19.2726 60.1796 13.8789L60.1675 13.8729ZM14.8132 8.18927C14.5474 7.82083 13.7683 7.64565 13.2428 8.17717C12.7173 8.70265 12.9771 9.22209 13.2791 9.53617C13.7139 9.98313 14.4508 9.94687 14.8857 9.70527C15.3266 9.46367 15.23 8.78115 14.8132 8.19527V8.18927ZM4.00766 4.06999C4.35194 3.69551 4.78077 2.98881 4.03785 1.63585C3.49425 0.645293 1.71246 0.240612 1.07826 0.615091C0.4501 0.995611 -0.316983 2.45729 0.733975 3.10357C2.09297 3.93708 2.98086 5.18739 4.00766 4.06999ZM68.4483 2.2338C67.9712 1.53921 66.9625 1.66605 65.9599 2.39085C64.9633 3.10961 65.1505 4.48673 65.4767 4.80685C66.0565 5.36857 67.6027 4.98806 67.9591 4.58942C68.8832 3.55658 68.9195 2.92841 68.4423 2.23985L68.4483 2.2338ZM62.6983 6.63094C64.1297 5.9605 66.3766 8.14696 63.1211 9.78984C58.4703 12.1394 57.975 15.0507 55.0335 16.905C50.0928 20.0216 51.6028 17.0318 43.6481 15.8963C40.5859 15.4614 39.6013 18.868 37.2095 17.8834C31.701 15.6124 27.8475 16.0473 24.2779 18.9465C22.9853 18.3787 21.6323 16.1802 21.1008 15.2983C22.5444 13.885 21.9646 11.5173 21.1431 10.2247C20.3277 8.92614 19.3372 9.29458 18.25 8.1047C17.1628 6.91482 18.6607 3.80423 20.0499 6.19003C25.2624 15.1413 28.681 11.4206 32.9453 10.8831C37.0283 10.3697 40.6463 12.5924 41.7516 6.29874C41.9328 5.27195 42.9354 5.02428 43.0441 6.72756C43.1468 8.43084 43.787 12.5743 46.0339 13.1118C48.2808 13.6494 50.0626 12.5864 50.5941 12.0005C51.1196 11.4086 51.3974 11.4992 51.627 12.9548C51.8565 14.4165 52.4303 16.4278 55.5831 14.187C62.0339 9.59054 60.1917 7.81478 62.6983 6.63698V6.63094ZM43.5213 2.42709C43.5394 1.69021 43.2072 1.23117 42.4824 1.25533C41.7576 1.27949 41.4979 1.64793 41.516 2.35461C41.6972 3.69549 41.9267 3.66529 42.4039 3.78609C42.8871 3.90689 43.4971 3.15188 43.5213 2.42104V2.42709ZM17.658 3.68946C17.9721 3.29082 18.0023 2.76534 17.5856 2.17947C17.3258 1.81103 16.0937 1.55733 15.5682 2.08281C15.0427 2.60828 15.5199 3.43577 15.9306 3.56261C16.6856 3.79213 17.0238 4.49883 17.658 3.69551V3.68946ZM60.8017 50.8558C60.8017 52.3839 59.9078 53.2234 58.2649 53.2234C56.8153 53.2234 55.8248 52.5409 55.8248 50.8558C55.8248 49.2975 56.7187 48.3854 58.2951 48.3854C59.8716 48.3854 60.8017 49.2914 60.8017 50.8558ZM48.9331 60.1694C50.2921 58.5446 50.9142 56.5998 50.9142 53.7428C50.9142 51.049 50.3586 49.231 49.0902 47.6727C47.7312 45.9875 45.9675 45.1721 43.7146 45.1721C39.4503 45.1721 36.6055 48.6451 36.6055 53.8697C36.6055 59.0943 39.4141 62.4707 43.7146 62.4707C46.1547 62.4707 47.7312 61.5948 48.9392 60.1634L48.9331 60.1694ZM46.4024 53.7066C46.4024 57.6387 45.6293 59.3239 43.8354 59.3239C43.0321 59.3239 42.1019 58.8709 41.7334 57.9649C41.3952 57.1193 41.208 55.6938 41.208 53.7791C41.208 52.1242 41.365 50.9584 41.6429 50.0766C41.9811 49.0377 42.7844 48.3854 43.775 48.3854C44.5179 48.3854 45.1642 48.7116 45.5688 49.2612C46.1245 50.0041 46.4024 51.4658 46.4024 53.7066ZM6.99142 65.1041L8.9967 67.4416C10.9476 66.6624 13.3878 64.9108 14.0038 62.1505C14.2213 61.2385 14.3119 60.6587 14.3119 57.7353V39.6758H9.92684V58.2245C9.92684 60.6587 9.83624 61.5647 9.49196 62.3801C9.08729 63.2921 8.10278 64.3914 6.99142 65.1041ZM17.1265 39.6214H16.6735V62.1203H20.9982V52.1543H26.4643V48.4519H20.9982V43.2877H27.8233L28.0891 41.3247C23.988 41.0106 20.2552 40.3522 17.1205 39.6214H17.1265ZM31.5077 45.1057C31.8762 45.7882 32.0936 46.5311 32.154 47.4733C32.7399 46.6277 33.7305 45.752 34.5036 45.3654C34.8418 45.2023 35.3975 45.1057 35.8626 45.1057C36.4787 45.1057 36.7565 45.1721 37.4088 45.462L36.2673 49.2914C35.8626 49.0679 35.5243 48.9653 35.0593 48.9653C34.1351 48.9653 33.2956 49.4182 32.5225 50.3605V62.1143H28.3851V51.0128C28.3851 48.772 28.1374 47.0808 27.7992 46.1446L31.5077 45.1057Z" fill="#4FB848"></path><path fill-rule="evenodd" clip-rule="evenodd" d="M199.395 46.6458C199.395 48.1135 199.057 49.4061 198.375 50.5356C197.698 51.6651 196.738 52.5167 195.512 53.0845C195.252 53.2113 194.986 53.3201 194.72 53.4046C194.449 53.4892 194.147 53.5617 193.814 53.6281C193.482 53.6945 193.09 53.7368 192.631 53.773C192.178 53.8032 191.64 53.8213 191.012 53.8213H188.517V61.9814H183.981V39.8267H189.906C190.855 39.8267 191.658 39.8448 192.316 39.8871C192.975 39.9294 193.537 39.9958 194.002 40.0924C194.467 40.1891 194.859 40.3039 195.185 40.4428C195.512 40.5817 195.838 40.7327 196.158 40.9079C197.215 41.4817 198.024 42.2608 198.574 43.2514C199.124 44.2359 199.401 45.3714 199.401 46.6458H199.395ZM90.0534 56.8112C90.0534 57.6628 89.8842 58.4299 89.5339 59.1184C89.1896 59.807 88.7064 60.405 88.0964 60.9063C87.4803 61.4076 86.7374 61.7942 85.8616 62.072C84.9858 62.3498 84.0194 62.4888 82.9624 62.4888C80.9329 62.4888 78.6982 61.8606 76.264 60.6043L77.8163 57.4816C78.1425 57.6749 78.523 57.8803 78.9639 58.1037C79.4048 58.3272 79.8699 58.5265 80.3531 58.7077C80.8424 58.8889 81.3376 59.0399 81.845 59.1547C82.3523 59.2695 82.8416 59.3298 83.3187 59.3298C83.9469 59.3298 84.4663 59.1547 84.8891 58.8043C85.3119 58.454 85.5234 58.0131 85.5234 57.4816C85.5234 56.9501 85.318 56.4971 84.9133 56.189C84.5026 55.881 83.8563 55.6394 82.9684 55.4703L81.0296 55.12C80.4679 55.0173 79.8941 54.7999 79.3142 54.4798C78.7283 54.1596 78.2874 53.8214 77.9854 53.459C77.6834 53.0966 77.4539 52.6557 77.2908 52.1241C77.1278 51.5926 77.0492 51.0611 77.0492 50.5296C77.0492 49.7444 77.2002 49.0196 77.5022 48.3612C77.8042 47.7029 78.2331 47.1411 78.8008 46.67C79.3626 46.1989 80.033 45.8425 80.8242 45.5888C81.6094 45.3351 82.4913 45.2083 83.4637 45.2083C84.7985 45.2083 85.9341 45.3714 86.8642 45.7036C87.7944 46.0358 88.6339 46.374 89.3889 46.7425L87.9635 49.6115C87.1421 49.1887 86.4173 48.8867 85.777 48.7055C85.1368 48.5243 84.5086 48.4337 83.8805 48.4337C83.2523 48.4337 82.7449 48.5787 82.3584 48.8625C81.9718 49.1464 81.7725 49.533 81.7725 50.0283C81.7725 50.4511 81.9295 50.7893 82.2436 51.0309C82.5577 51.2725 83.0892 51.496 83.8442 51.6832L85.8495 52.1966C86.3689 52.3235 86.7978 52.4564 87.1481 52.5953C87.4924 52.7342 87.7944 52.8792 88.036 53.0422C88.2836 53.1993 88.495 53.3623 88.6702 53.5193C88.8393 53.6764 89.0024 53.8515 89.1594 54.0448C89.7634 54.7877 90.0654 55.7119 90.0654 56.8172H90.0594L90.0534 56.8112ZM107.889 61.9814H103.909L102.423 56.3703C102.248 55.7119 102.079 55.0294 101.904 54.3167C101.735 53.6039 101.59 52.9758 101.481 52.4201L101.221 50.7953C101.197 50.9644 101.179 51.1275 101.155 51.2725L101.094 51.6893C101.07 51.8161 101.04 51.9731 100.998 52.1664C100.956 52.3536 100.901 52.6013 100.835 52.8973C100.744 53.2597 100.647 53.6825 100.527 54.1717C100.406 54.6609 100.285 55.1743 100.152 55.7179C100.025 56.2615 99.8865 56.787 99.7475 57.2943C99.6086 57.8077 99.4939 58.2487 99.4093 58.6292L98.5697 61.9753H94.5229L89.9869 45.9452L94.2934 45.4681L95.6524 51.7436C95.737 52.1725 95.8336 52.6436 95.9423 53.163C96.0511 53.6824 96.1477 54.1898 96.2323 54.679C96.3168 55.1683 96.3953 55.6092 96.4557 56.0018C96.5161 56.3944 96.5645 56.6662 96.5826 56.8112C96.6249 56.4911 96.6913 56.1045 96.7758 55.6454C96.8604 55.1864 96.9571 54.6972 97.0658 54.1778C97.1745 53.6583 97.2832 53.1328 97.404 52.6013C97.5188 52.0698 97.6456 51.5805 97.7785 51.1336L99.3308 45.6493H103.408L104.737 51.0369C104.888 51.7134 105.033 52.3778 105.171 53.012C105.31 53.6522 105.437 54.226 105.546 54.7334C105.655 55.2407 105.745 55.6817 105.824 56.0562C105.896 56.4246 105.945 56.6783 105.969 56.8051C105.987 56.636 106.029 56.3582 106.083 55.9777C106.138 55.5971 106.21 55.1562 106.295 54.6549C106.379 54.1535 106.47 53.6281 106.567 53.0784C106.663 52.5228 106.766 51.9912 106.875 51.4839L108.137 45.6493H112.607L107.883 61.9693L107.889 61.9814ZM124.759 62.8028C124.264 62.5914 123.805 62.3136 123.382 61.9753C122.959 61.6371 122.645 61.2566 122.428 60.8278C122.253 60.9969 122.089 61.1539 121.926 61.3049C121.763 61.4499 121.6 61.5827 121.425 61.6854C120.586 62.2834 119.474 62.5793 118.091 62.5793C116.237 62.5793 114.817 62.1384 113.851 61.2566C112.878 60.3748 112.395 59.1184 112.395 57.4816C112.395 55.5488 113.06 54.1294 114.388 53.2294C115.711 52.3295 117.704 51.8765 120.362 51.8765H120.851C121.002 51.8765 121.165 51.8886 121.341 51.9067V51.2423C121.341 50.3303 121.22 49.6961 120.966 49.3458C120.718 48.9954 120.193 48.8203 119.396 48.8203C118.707 48.8203 117.964 48.9773 117.161 49.2974C116.364 49.6175 115.512 50.0705 114.6 50.6685L112.752 47.6062C113.186 47.3284 113.591 47.0928 113.984 46.9056C114.37 46.7123 114.86 46.5009 115.439 46.2653C116.261 45.9271 117.028 45.6794 117.753 45.5345C118.472 45.3895 119.214 45.311 119.969 45.311C121.371 45.311 122.53 45.5526 123.448 46.0418C124.367 46.5311 124.989 47.2318 125.309 48.1438C125.375 48.3129 125.424 48.476 125.454 48.6391C125.484 48.7961 125.52 48.9834 125.55 49.2008C125.581 49.4122 125.599 49.6719 125.599 49.9619V51.0792L125.502 56.5635C125.502 57.0105 125.514 57.3971 125.532 57.7293C125.556 58.0615 125.617 58.3635 125.726 58.6353C125.834 58.9131 125.991 59.1728 126.197 59.4144C126.402 59.656 126.686 59.9157 127.054 60.1936L124.753 62.8089L124.759 62.8028ZM121.069 54.8421C119.559 54.8421 118.508 55.0112 117.91 55.3495C117.318 55.6877 117.022 56.3521 117.022 57.3246C117.022 57.9648 117.197 58.4782 117.553 58.8708C117.91 59.2634 118.369 59.4627 118.931 59.4627C119.341 59.4627 119.74 59.3661 120.126 59.1788C120.513 58.9855 120.869 58.7077 121.196 58.3513L121.262 54.8482H121.069V54.8421ZM145.319 61.9814V51.206C145.319 50.7168 145.307 50.3242 145.271 50.0283C145.241 49.7323 145.174 49.4967 145.078 49.3276C144.981 49.1585 144.842 49.0438 144.655 48.9773C144.474 48.9109 144.238 48.8807 143.96 48.8807C143.55 48.8807 143.084 49.0015 142.571 49.2491C142.052 49.4907 141.556 49.829 141.085 50.2518V61.9814H136.972V51.3691C136.972 50.3484 136.875 49.6719 136.682 49.3458C136.489 49.0136 136.084 48.8504 135.486 48.8504C135.075 48.8504 134.616 48.9531 134.109 49.1524C133.602 49.3518 133.112 49.6719 132.635 50.0947V61.9814H128.395V50.6021C128.395 49.4122 128.353 48.5182 128.268 47.9263C128.184 47.3283 128.021 46.8331 127.779 46.4284L131.693 45.3774C131.844 45.613 131.959 45.8425 132.031 46.06C132.104 46.2834 132.188 46.6096 132.273 47.0324C133.439 45.9271 134.792 45.3774 136.32 45.3774C137.679 45.3774 138.802 45.8245 139.684 46.7123C139.901 46.9237 140.119 47.1895 140.33 47.5096C141.085 46.7485 141.828 46.1989 142.565 45.8667C143.296 45.5345 144.117 45.3714 145.023 45.3714C145.67 45.3714 146.286 45.462 146.872 45.6432C147.457 45.8244 147.929 46.0781 148.297 46.3922C148.533 46.5794 148.732 46.7968 148.883 47.0324C149.034 47.268 149.161 47.5398 149.257 47.8418C149.354 48.1498 149.426 48.5122 149.469 48.9229C149.511 49.3397 149.535 49.8229 149.535 50.3725V61.9753H145.325L145.319 61.9814ZM165.3 53.3744C165.3 54.2441 165.263 55.0234 165.191 55.6998C165.118 56.3763 164.985 57.0045 164.798 57.5662C164.617 58.1279 164.375 58.6473 164.086 59.1124C163.796 59.5835 163.433 60.0365 162.998 60.4835C162.437 61.0814 161.784 61.5344 161.041 61.8546C160.292 62.1747 159.471 62.3317 158.565 62.3317C157.919 62.3317 157.297 62.2593 156.705 62.1083C156.113 61.9573 155.575 61.7458 155.104 61.468C155.146 61.6613 155.164 61.8727 155.164 62.1083V67.9127L150.991 68.9998V50.1309C150.991 49.5994 150.985 49.1464 150.973 48.778C150.961 48.4035 150.955 48.0773 150.943 47.7874C150.93 47.5035 150.912 47.2197 150.876 46.9419C150.84 46.664 150.798 46.356 150.731 46.0177L154.585 45.3472C154.675 45.6432 154.736 45.909 154.778 46.1445C154.82 46.3801 154.85 46.6217 154.875 46.8753C155.243 46.4284 155.805 46.06 156.56 45.7761C157.315 45.4862 158.112 45.3472 158.958 45.3472C159.543 45.3472 160.117 45.4379 160.691 45.6191C161.265 45.8003 161.778 46.0419 162.231 46.3379C162.684 46.6338 163.095 46.9962 163.463 47.4069C163.832 47.8236 164.152 48.3129 164.436 48.8867C164.714 49.4605 164.931 50.1189 165.088 50.8678C165.239 51.6108 165.312 52.4503 165.312 53.3865L165.3 53.3744ZM160.57 53.7851C160.57 52.9999 160.54 52.3054 160.474 51.6953C160.407 51.0913 160.304 50.584 160.147 50.1793C159.827 49.2672 159.133 48.8082 158.076 48.8082C156.952 48.8082 155.992 49.2249 155.195 50.0524V57.989C155.497 58.2245 155.865 58.442 156.294 58.6413C156.729 58.8406 157.158 58.9433 157.593 58.9433C158.674 58.9433 159.441 58.5507 159.894 57.7655C160.347 56.9803 160.576 55.6515 160.576 53.7851H160.57ZM182.592 54.7455C182.592 55.277 182.586 55.7119 182.574 56.0562C182.562 56.3944 182.55 56.6843 182.526 56.9138C182.501 57.1494 182.471 57.3669 182.429 57.5662C182.387 57.7655 182.32 57.989 182.236 58.2185C182.085 58.6654 181.831 59.1306 181.475 59.6198C181.118 60.109 180.635 60.562 180.019 60.9727C179.403 61.3895 178.648 61.7277 177.754 61.9935C176.86 62.2592 175.803 62.3921 174.595 62.3921C172.868 62.3921 171.388 62.1445 170.162 61.6432C168.93 61.1419 168.005 60.4049 167.377 59.4265C167.184 59.1486 167.027 58.8708 166.906 58.599C166.785 58.3212 166.689 58.0252 166.616 57.7051C166.544 57.385 166.489 57.0346 166.453 56.636C166.423 56.2434 166.405 55.7784 166.405 55.2468V43.8433C167.975 43.5171 169.515 43.1668 171.032 42.7863V54.3891C171.032 55.0656 171.062 55.6213 171.128 56.0441C171.195 56.4669 171.291 56.7991 171.418 57.0347C171.962 58.0554 172.982 58.5628 174.492 58.5628C175.483 58.5628 176.28 58.3333 176.872 57.8803C177.47 57.4212 177.814 56.7931 177.923 55.9837C177.965 55.7481 177.984 55.5186 177.984 55.283V40.8233C178.998 40.5032 179.995 40.171 180.979 39.8207H182.58V54.7394H182.586L182.592 54.7455ZM194.443 46.7425C194.443 45.7036 194.177 44.8882 193.651 44.3023C193.12 43.7165 192.377 43.4265 191.404 43.4265H188.523V50.1853H190.885C191.338 50.1853 191.718 50.1732 192.039 50.137C192.353 50.1068 192.625 50.0464 192.848 49.9619C193.071 49.8773 193.271 49.7625 193.434 49.6115C193.597 49.4605 193.754 49.2733 193.905 49.0377C194.098 48.7418 194.237 48.4156 194.328 48.0653C194.412 47.715 194.455 47.274 194.455 46.7425H194.443Z" fill="white"></path><path d="M122.573 29.3896C123.467 29.3896 124.282 29.589 125.013 29.9936C125.744 30.3983 126.33 30.9842 126.771 31.7513C127.212 32.5183 127.429 33.4606 127.429 34.5659C127.429 35.7618 127.187 36.7765 126.704 37.6101C126.227 38.4375 125.508 39.0657 124.542 39.5006C123.581 39.9234 122.367 40.1408 120.906 40.1408C119.976 40.1408 119.124 40.0683 118.357 39.9234C117.596 39.7845 116.913 39.567 116.315 39.2771V35.7195C116.877 35.9732 117.56 36.2088 118.351 36.4202C119.148 36.6256 119.885 36.7282 120.549 36.7282C121.081 36.7282 121.54 36.6497 121.908 36.4987C122.283 36.3477 122.567 36.1182 122.754 35.8162C122.953 35.5142 123.05 35.1457 123.05 34.7048C123.05 34.0948 122.833 33.6237 122.392 33.2794C121.951 32.9291 121.286 32.7539 120.392 32.7539C119.988 32.7539 119.595 32.7962 119.209 32.8747C118.822 32.9532 118.478 33.0439 118.188 33.1405L116.593 32.3493L117.197 23.8691H126.36V27.481H120.888L120.688 29.601C120.924 29.5587 121.159 29.5104 121.401 29.4682C121.649 29.4259 122.041 29.4017 122.579 29.4017L122.573 29.3896Z" fill="white"></path><path d="M114.419 39.9113H102.761V37.0544L106.681 33.0862C107.497 32.2345 108.125 31.558 108.572 31.0446C109.025 30.5312 109.345 30.0964 109.526 29.74C109.707 29.3836 109.798 29.0091 109.798 28.6165C109.798 28.1394 109.647 27.7951 109.339 27.5837C109.031 27.3723 108.668 27.2636 108.252 27.2636C107.744 27.2636 107.231 27.4086 106.711 27.7045C106.198 27.9884 105.618 28.4172 104.966 28.979L102.58 26.1885C103.063 25.7536 103.577 25.3489 104.12 24.9563C104.664 24.5637 105.304 24.2376 106.041 23.9899C106.778 23.7423 107.684 23.6154 108.747 23.6154C109.81 23.6154 110.782 23.8087 111.58 24.1893C112.383 24.5698 113.005 25.0952 113.446 25.7596C113.887 26.418 114.104 27.1669 114.104 28.0125C114.104 28.9427 113.929 29.7762 113.585 30.5071C113.247 31.2319 112.739 31.9627 112.057 32.6935C111.374 33.4183 110.529 34.2398 109.508 35.1639L108.33 36.2209V36.3296H114.406V39.9113H114.419Z" fill="white"></path><path d="M101.3 31.9023C101.3 33.1888 101.197 34.3425 100.992 35.3632C100.786 36.3719 100.46 37.2356 100.001 37.9423C99.5542 38.655 98.9623 39.1925 98.2194 39.567C97.4825 39.9415 96.5704 40.1288 95.4953 40.1288C94.1544 40.1288 93.0552 39.8026 92.1975 39.1503C91.3398 38.4919 90.7056 37.5497 90.2949 36.3236C89.8902 35.0914 89.6909 33.6177 89.6909 31.8963C89.6909 30.1749 89.8721 28.677 90.2405 27.4448C90.615 26.2066 91.2251 25.2583 92.0767 24.5999C92.9283 23.9416 94.0638 23.6094 95.4953 23.6094C96.8362 23.6094 97.9294 23.9416 98.7811 24.5999C99.6387 25.2523 100.273 26.1945 100.684 27.4327C101.094 28.6649 101.3 30.1507 101.3 31.8963V31.9023ZM94.0155 31.9023C94.0155 32.9472 94.0518 33.8291 94.1243 34.5418C94.2028 35.2545 94.3538 35.786 94.5652 36.1484C94.7826 36.4987 95.0967 36.6739 95.5014 36.6739C95.906 36.6739 96.2141 36.4987 96.4255 36.1484C96.6369 35.792 96.7818 35.2605 96.8664 34.5538C96.9449 33.8411 96.9872 32.9593 96.9872 31.9083C96.9872 30.8574 96.9449 29.9574 96.8664 29.2507C96.7879 28.538 96.6369 28.0065 96.4255 27.6441C96.2141 27.2756 95.906 27.0945 95.5014 27.0945C95.0967 27.0945 94.7886 27.2756 94.5652 27.6441C94.3538 28.0004 94.2088 28.538 94.1243 29.2507C94.0518 29.9635 94.0155 30.8453 94.0155 31.9083V31.9023Z" fill="white"></path><path d="M88.0483 39.9113H76.3911V37.0544L80.3111 33.0862C81.1265 32.2345 81.7547 31.558 82.2016 31.0446C82.6546 30.5312 82.9747 30.0964 83.1559 29.74C83.3371 29.3836 83.4277 29.0091 83.4277 28.6165C83.4277 28.1394 83.2767 27.7951 82.9687 27.5837C82.6606 27.3723 82.2983 27.2636 81.8815 27.2636C81.3741 27.2636 80.8607 27.4086 80.3413 27.7045C79.8279 27.9884 79.2481 28.4172 78.5957 28.979L76.2099 26.1885C76.6931 25.7536 77.2065 25.3489 77.7501 24.9563C78.2937 24.5637 78.934 24.2376 79.6709 23.9899C80.4078 23.7423 81.3137 23.6154 82.3768 23.6154C83.4398 23.6154 84.4123 23.8087 85.2095 24.1893C86.0129 24.5698 86.635 25.0952 87.0759 25.7596C87.5168 26.418 87.7342 27.1669 87.7342 28.0125C87.7342 28.9427 87.5591 29.7762 87.2148 30.5071C86.8766 31.2319 86.3692 31.9627 85.6867 32.6935C85.0042 33.4183 84.1586 34.2398 83.1378 35.1639L81.96 36.2209V36.3296H88.0362V39.9113H88.0483Z" fill="white"></path></svg>